<svg xmlns="http://www.w3.org/2000/svg" xmlns:xlink="http://www.w3.org/1999/xlink" viewBox="0,0,256,256" width="100px" height="100px" fill-rule="nonzero"><g transform="translate(-126.72,-126.72) scale(1.99,1.99)"><g fill="none" fill-rule="nonzero" stroke="none" stroke-width="1" stroke-linecap="none" stroke-linejoin="none" stroke-miterlimit="10" stroke-dasharray="" stroke-dashoffset="0" font-family="none" font-weight="none" font-size="none" text-anchor="none" style="mix-blend-mode: normal"><g transform="scale(2.56,2.56)"><circle cx="13" cy="29" r="2" fill="#78a0cf" stroke="none" stroke-linecap="butt" stroke-linejoin="miter"></circle><circle cx="77" cy="13" r="1" fill="#f1bc19" stroke="none" stroke-linecap="butt" stroke-linejoin="miter"></circle><circle cx="50" cy="50" r="37" fill="#cee1f4" stroke="none" stroke-linecap="butt" stroke-linejoin="miter"></circle><circle cx="83" cy="15" r="4" fill="#f1bc19" stroke="none" stroke-linecap="butt" stroke-linejoin="miter"></circle><circle cx="87" cy="24" r="2" fill="#78a0cf" stroke="none" stroke-linecap="butt" stroke-linejoin="miter"></circle><circle cx="81" cy="76" r="2" fill="#fbcd59" stroke="none" stroke-linecap="butt" stroke-linejoin="miter"></circle><circle cx="15" cy="63" r="4" fill="#fbcd59" stroke="none" stroke-linecap="butt" stroke-linejoin="miter"></circle><circle cx="25" cy="87" r="2" fill="#78a0cf" stroke="none" stroke-linecap="butt" stroke-linejoin="miter"></circle><circle cx="18.5" cy="53.5" r="2.5" fill="#ffffff" stroke="none" stroke-linecap="butt" stroke-linejoin="miter"></circle><circle cx="21" cy="67" r="1" fill="#f1bc19" stroke="none" stroke-linecap="butt" stroke-linejoin="miter"></circle><circle cx="80" cy="34" r="1" fill="#ffffff" stroke="none" stroke-linecap="butt" stroke-linejoin="miter"></circle><path d="M66.719,73h-31.438c-4.021,0 -7.281,-3.26 -7.281,-7.281v-31.438c0,-4.021 3.26,-7.281 7.281,-7.281h31.438c4.021,0 7.281,3.26 7.281,7.281v31.438c0,4.021 -3.26,7.281 -7.281,7.281z" fill="#88ae45" stroke="none" stroke-linecap="butt" stroke-linejoin="miter"></path><path d="M66.719,73.7h-31.438c-4.401,0 -7.981,-3.58 -7.981,-7.981v-31.438c0,-4.401 3.581,-7.981 7.981,-7.981h31.438c4.401,0 7.981,3.58 7.981,7.981v31.438c0,4.401 -3.58,7.981 -7.981,7.981zM35.281,27.7c-3.629,0 -6.581,2.952 -6.581,6.581v31.438c0,3.629 2.952,6.581 6.581,6.581h31.438c3.629,0 6.581,-2.952 6.581,-6.581v-31.438c0,-3.629 -2.952,-6.581 -6.581,-6.581z" fill="#472b29" stroke="none" stroke-linecap="butt" stroke-linejoin="miter"></path><path d="M31.5,40.167c-0.276,0 -0.5,-0.224 -0.5,-0.5v-4.333c0,-2.941 2.393,-5.334 5.333,-5.334h14c0.276,0 0.5,0.224 0.5,0.5c0,0.276 -0.224,0.5 -0.5,0.5h-14c-2.389,0 -4.333,1.944 -4.333,4.333v4.333c0,0.277 -0.224,0.501 -0.5,0.501z" fill="#472b29" stroke="none" stroke-linecap="butt" stroke-linejoin="miter"></path><path d="M42.583,70h-6.25c-2.94,0 -5.333,-2.393 -5.333,-5.333v-20.334c0,-0.276 0.224,-0.5 0.5,-0.5c0.276,0 0.5,0.224 0.5,0.5v20.333c0,2.39 1.944,4.334 4.333,4.334h6.25c0.276,0 0.5,0.224 0.5,0.5c0,0.276 -0.223,0.5 -0.5,0.5z" fill="#472b29" stroke="none" stroke-linecap="butt" stroke-linejoin="miter"></path><path d="M65.667,70h-19.75c-0.276,0 -0.5,-0.224 -0.5,-0.5c0,-0.276 0.224,-0.5 0.5,-0.5h19.75c2.39,0 4.333,-1.944 4.333,-4.333v-5.083c0,-0.276 0.224,-0.5 0.5,-0.5c0.276,0 0.5,0.224 0.5,0.5v5.083c0,2.94 -2.393,5.333 -5.333,5.333z" fill="#472b29" stroke="none" stroke-linecap="butt" stroke-linejoin="miter"></path><path d="M70.5,56.167c-0.276,0 -0.5,-0.224 -0.5,-0.5v-20.334c0,-2.389 -1.943,-4.333 -4.333,-4.333h-2.75c-0.276,0 -0.5,-0.224 -0.5,-0.5c0,-0.276 0.224,-0.5 0.5,-0.5h2.75c2.94,0 5.333,2.393 5.333,5.333v20.333c0,0.277 -0.224,0.501 -0.5,0.501z" fill="#472b29" stroke="none" stroke-linecap="butt" stroke-linejoin="miter"></path><path d="M59.5,31h-6.25c-0.276,0 -0.5,-0.224 -0.5,-0.5c0,-0.276 0.224,-0.5 0.5,-0.5h6.25c0.276,0 0.5,0.224 0.5,0.5c0,0.276 -0.224,0.5 -0.5,0.5z" fill="#472b29" stroke="none" stroke-linecap="butt" stroke-linejoin="miter"></path><path d="M50.5,38.617c-7.716,0 -13.971,5.118 -13.971,11.43c0,4.103 2.644,7.7 6.613,9.716c-0.154,1.006 -0.649,2.481 -2.167,3.62c0,0 3.819,-0.68 5.407,-2.411c1.302,0.328 2.685,0.505 4.118,0.505c7.716,0 13.971,-5.118 13.971,-11.43c0,-6.312 -6.255,-11.43 -13.971,-11.43z" fill="#eeecd9" stroke="#472b29" stroke-linecap="round" stroke-linejoin="round"></path></g></g><g fill="#4e3a0a" fill-rule="nonzero" stroke="none" stroke-width="1" stroke-linecap="butt" stroke-linejoin="miter" stroke-miterlimit="10" stroke-dasharray="" stroke-dashoffset="0" font-family="none" font-weight="none" font-size="none" text-anchor="none" style="mix-blend-mode: normal"><g><path d="M144.701,132.343v15.25c-0.84667,0.48667 -1.83667,0.96333 -2.97,1.43c-1.12667,0.46667 -2.32333,0.88667 -3.59,1.26c-1.26667,0.38 -2.53333,0.69 -3.8,0.93c-1.26,0.24667 -2.44667,0.37 -3.56,0.37v0c-3.54667,0 -6.74,-0.47667 -9.58,-1.43c-2.84,-0.95333 -5.26,-2.42 -7.26,-4.4c-1.99333,-1.97333 -3.53333,-4.46667 -4.62,-7.48c-1.08667,-3.02 -1.63,-6.61667 -1.63,-10.79v0c0,-4.34667 0.63,-8.05 1.89,-11.11c1.26667,-3.06 2.95333,-5.55667 5.06,-7.49c2.10667,-1.92667 4.50333,-3.32333 7.19,-4.19c2.68667,-0.86667 5.42667,-1.3 8.22,-1.3v0c2.92667,0 5.4,0.19 7.42,0.57c2.02,0.37333 3.78333,0.93667 5.29,1.69v0c0,0.66667 -0.02,1.49 -0.06,2.47c-0.04667,0.97333 -0.11333,1.99333 -0.2,3.06c-0.08667,1.06 -0.19667,2.11333 -0.33,3.16c-0.13333,1.04 -0.26667,1.96 -0.4,2.76v0h-1.73l-3.47,-9.58c-0.48667,-0.26667 -1.30667,-0.44667 -2.46,-0.54c-1.15333,-0.08667 -2.28333,-0.13 -3.39,-0.13v0c-2.22,0 -4.33,0.41 -6.33,1.23c-1.99333,0.82 -3.73333,2.08667 -5.22,3.8c-1.48667,1.70667 -2.67333,3.85667 -3.56,6.45c-0.88667,2.6 -1.33,5.65 -1.33,9.15v0c0,3.15333 0.43333,5.99333 1.3,8.52c0.86,2.53333 2.05667,4.69667 3.59,6.49c1.53333,1.8 3.33,3.18667 5.39,4.16c2.06667,0.98 4.29667,1.47 6.69,1.47v0c0.88667,0 1.75333,-0.09 2.6,-0.27c0.84,-0.17333 1.61667,-0.38333 2.33,-0.63c0.70667,-0.24667 1.29333,-0.50333 1.76,-0.77c0.46667,-0.26667 0.78667,-0.48667 0.96,-0.66v0v-13.45c-1.15333,-0.08667 -2.25,-0.28667 -3.29,-0.6c-1.04,-0.30667 -2.07333,-0.63667 -3.1,-0.99v0v-1.93h16.31v1.93c-0.44,0.30667 -0.97333,0.59333 -1.6,0.86c-0.62,0.26667 -1.46,0.51 -2.52,0.73z"></path></g></g></g></svg>